<svg width="513" height="512" viewBox="0 0 513 512" fill="none" xmlns="http://www.w3.org/2000/svg">
<path fill-rule="evenodd" clip-rule="evenodd" d="M68.6285 255.999C91.7137 275.182 121.389 286.719 153.761 286.719C186.133 286.719 215.809 275.182 238.894 255.999C215.803 236.808 186.134 225.279 153.761 225.279C121.388 225.279 91.7195 236.808 68.6285 255.999ZM53.8517 241.662C80.7149 218.689 115.62 204.799 153.761 204.799C191.903 204.799 226.808 218.689 253.671 241.662C274.405 218.194 286.986 187.365 286.986 153.599C286.986 80.0796 227.339 20.48 153.761 20.48C80.1831 20.48 20.5362 80.0796 20.5363 153.599C20.5363 187.365 33.1176 218.194 53.8517 241.662ZM153.761 307.199C68.8634 307.199 0.0401209 238.43 0.0401135 153.599C0.0401061 68.7689 68.8634 6.65874e-05 153.761 5.17492e-05C238.659 3.69111e-05 307.482 68.7688 307.482 153.599C307.482 238.43 238.659 307.199 153.761 307.199ZM491.546 153.6C491.546 227.12 431.899 286.719 358.321 286.719C336.811 286.719 316.511 281.633 298.54 272.6L289.042 289.678L272.856 298.666C281.896 316.622 286.986 336.906 286.986 358.399C286.986 431.918 227.339 491.518 153.761 491.518C80.1832 491.518 20.5363 431.919 20.5363 358.399C20.5363 336.906 25.6267 316.622 34.6666 298.666L16.738 288.71C6.0606 309.632 0.0401292 333.324 0.0401314 358.399C0.0401388 443.229 68.8634 511.998 153.761 511.998C238.659 511.998 307.482 443.229 307.482 358.399C307.482 334.834 302.165 312.492 292.663 292.521C312.58 301.935 334.844 307.199 358.321 307.199C443.218 307.199 512.042 238.43 512.042 153.6C512.042 68.7693 443.218 0.000521807 358.321 0.000525518C333.226 0.000526615 309.516 6.01624 288.577 16.6852L298.54 34.5996C316.511 25.5668 336.811 20.4804 358.321 20.4804C431.899 20.4804 491.546 80.08 491.546 153.6Z" fill="#898887"/>
</svg>
